<?xml version='1.0' encoding='utf-8'?>
<!-- Generator: imaengine 6.0   -->
<svg xmlns:xlink="http://www.w3.org/1999/xlink" xmlns="http://www.w3.org/2000/svg" viewBox="0,0,128,128" style="enable-background:new 0 0 128 128;" version="1.1">
<defs/>
<g id="layer0">
<g>
<path d="M66.399,89.467C63.911,91.59 61.238,93.436 58.258,94.812C56.005,95.858 53.648,96.55 51.233,97.088C48.238,97.757 45.189,97.711 42.17,97.557C39.328,97.411 36.564,96.696 33.879,95.697C31.418,94.774 29.119,93.566 26.95,92.097C24.947,90.736 23.108,89.183 21.478,87.399C19.636,85.376 18.067,83.154 16.752,80.747C15.495,78.447 14.603,76.01 13.945,73.487C13.565,72.022 13.326,70.522 13.173,69.008C13.007,67.423 12.923,65.839 13.004,64.255C13.127,61.763 13.515,59.306 14.219,56.903C14.826,54.826 15.603,52.816 16.626,50.908C17.691,48.928 18.937,47.066 20.375,45.328C22.717,42.498 25.47,40.152 28.604,38.276C31.63,36.461 34.883,35.165 38.359,34.465C39.901,34.157 41.446,33.946 43.019,33.831C44.126,33.754 45.23,33.723 46.326,33.773C47.864,33.85 49.398,34 50.913,34.304C53.189,34.754 55.415,35.385 57.538,36.315C59.538,37.191 61.464,38.222 63.245,39.503C64.333,40.288 65.367,41.137 66.398,41.991C67.278,42.391 67.867,43.129 68.451,43.848C68.705,44.163 68.532,44.398 68.052,44.413C67.152,44.448 66.244,44.486 65.349,44.409C64.453,44.328 63.803,44.605 63.342,45.363C63.242,45.524 63.096,45.647 62.957,45.843C63.149,45.92 63.318,45.893 63.48,45.893C65.457,45.893 67.433,45.909 69.41,45.882C70.014,45.874 70.44,46.078 70.76,46.578C71.002,46.959 71.306,47.301 71.529,47.689C71.753,48.07 71.668,48.22 71.229,48.27C71.041,48.29 70.848,48.278 70.66,48.278C67.849,48.278 65.043,48.278 62.236,48.278C61.086,48.278 60.756,48.539 60.44,49.681C60.563,49.789 60.709,49.75 60.844,49.75C64.597,49.75 68.346,49.758 72.099,49.746C72.622,49.673 72.953,49.904 73.175,50.373C73.367,50.777 73.591,51.169 73.768,51.584C73.907,51.899 73.806,52.084 73.46,52.118C73.23,52.145 73.006,52.138 72.783,52.138C68.564,52.138 64.35,52.165 60.136,52.118C59.313,52.11 58.813,52.337 58.609,53.141C58.575,53.272 58.49,53.391 58.459,53.525C58.459,53.583 58.479,53.633 58.528,53.671C58.732,53.733 58.944,53.705 59.151,53.705C63.819,53.705 68.487,53.705 73.151,53.709C73.505,53.709 73.851,53.671 74.197,53.694C74.427,53.713 74.666,53.733 74.797,53.94C75.143,54.455 75.297,55.044 75.404,55.644C75.443,55.871 75.258,55.932 75.082,55.967C74.843,56.013 74.597,56.002 74.351,56.002C69.045,56.002 63.731,56.002 58.421,56.002C57.54,56.002 57.187,56.344 57.136,57.221C57.121,57.425 57.205,57.513 57.394,57.529C57.582,57.549 57.775,57.541 57.967,57.541C63.501,57.541 69.038,57.541 74.575,57.541C74.782,57.541 74.99,57.541 75.198,57.545C75.951,57.56 76.082,57.668 76.259,58.41C76.552,59.694 76.513,59.752 75.213,59.752C69.3,59.748 63.381,59.717 57.464,59.729C57.256,59.729 57.048,59.736 56.841,59.713C55.98,59.551 55.114,59.651 54.249,59.636C53.884,59.628 53.795,59.87 53.746,60.174C53.388,62.293 52.981,64.404 52.619,66.523C52.334,68.18 52,69.826 51.739,71.491C51.547,72.729 51.912,73.287 53.15,73.506C54.077,73.668 55.011,73.68 55.938,73.452C56.434,73.329 56.727,73.056 56.772,72.533C56.803,72.221 57.03,71.876 56.887,71.622C56.702,71.288 56.326,71.595 56.033,71.572C55.733,71.545 55.449,71.487 55.176,71.372C54.876,71.241 54.692,70.999 54.738,70.676C54.881,69.699 55,68.719 55.146,67.742C55.165,67.623 55.211,67.508 55.342,67.458C55.404,67.45 55.457,67.462 55.507,67.496C55.565,68.331 56.084,68.496 56.799,68.399C56.949,68.377 57.107,68.407 57.245,68.492C57.483,68.823 57.422,69.226 57.483,69.596C57.787,71.453 58.821,72.676 60.617,73.242C62.228,73.753 63.87,73.699 65.512,73.445C66.216,73.338 66.681,73 66.723,72.204C66.746,71.742 66.881,71.285 66.931,70.831C66.777,70.708 66.681,70.831 66.589,70.877C65.239,71.558 63.82,71.647 62.374,71.335C61.451,71.135 60.786,70.565 60.452,69.666C60.186,68.943 60.421,68.612 61.19,68.608C63.047,68.6 64.904,68.592 66.762,68.612C67.208,68.62 67.419,68.501 67.461,68.02C67.534,67.212 67.7,66.424 67.649,65.593C67.518,63.463 65.711,62.209 63.889,62.129C62.862,62.083 61.84,62.133 60.867,62.525C59.233,63.182 58.268,64.428 57.76,66.078C57.676,66.351 57.676,66.671 57.395,66.855C56.907,66.993 56.411,66.931 55.918,66.913C55.545,66.901 55.438,66.647 55.438,66.32C55.403,65.828 55.538,65.359 55.638,64.886C55.7,64.597 55.869,64.486 56.161,64.513C56.507,64.548 56.853,64.536 57.199,64.533C57.488,64.533 57.649,64.39 57.699,64.11C57.772,63.668 57.845,63.222 57.922,62.78C57.976,62.453 57.822,62.338 57.518,62.342C57.31,62.346 57.103,62.35 56.895,62.338C56.676,62.322 56.399,62.373 56.295,62.134C56.18,61.868 56.233,61.592 56.476,61.38C56.706,61.276 56.949,61.292 57.191,61.292C63.408,61.292 69.622,61.292 75.844,61.292C76.652,61.292 76.751,61.365 76.86,61.934C76.783,62.407 76.475,62.78 76.291,63.207C75.876,64.184 75.599,65.195 75.398,66.233C75.352,66.467 75.336,66.721 75.09,66.86C74.044,66.99 73.006,66.96 71.96,66.879C71.652,66.733 71.783,66.51 71.884,66.314C72.253,65.619 72.875,65.176 73.621,65.13C74.536,65.075 74.96,64.688 75.067,63.803C75.121,63.396 75.367,63.034 75.582,62.673C75.813,62.269 75.782,62.223 75.306,62.223C74.329,62.223 73.514,62.565 72.868,63.311C72.729,63.477 72.629,63.765 72.306,63.619C72.221,63.489 72.221,63.346 72.237,63.2C72.245,63.116 72.267,63.031 72.283,62.946C72.36,62.396 72.321,62.35 71.761,62.342C71.238,62.338 70.722,62.338 70.199,62.342C69.433,62.342 69.441,62.354 69.3,63.088C68.846,65.456 68.558,67.848 68.13,70.217C67.957,71.155 67.776,72.093 67.619,73.031C67.534,73.539 67.565,73.589 68.061,73.596C68.668,73.608 69.272,73.58 69.879,73.604C70.272,73.62 70.444,73.454 70.494,73.081C70.529,72.827 70.567,72.555 70.836,72.412C70.998,72.343 71.175,72.339 71.344,72.339C72.751,72.335 74.158,72.328 75.559,72.339C76.258,72.347 76.359,72.478 76.212,73.151C75.881,74.643 75.881,74.643 74.336,74.643C68.98,74.643 63.623,74.643 58.263,74.643C58.124,74.643 57.986,74.643 57.847,74.643C57.336,74.659 57.289,74.712 57.436,75.189C57.524,75.474 57.59,75.766 57.732,76.027C57.763,76.074 57.805,76.12 57.859,76.158C58.078,76.235 58.305,76.205 58.532,76.205C63.423,76.213 68.318,76.205 73.213,76.213C73.697,76.213 74.182,76.158 74.666,76.205C75.104,76.259 75.212,76.42 75.089,76.843C74.974,77.228 74.797,77.581 74.628,77.943C74.489,78.22 74.267,78.359 73.967,78.381C73.721,78.397 73.475,78.397 73.237,78.397C68.653,78.397 64.073,78.389 59.494,78.397C58.663,78.397 58.671,78.428 59.002,79.205C59.244,79.774 59.598,79.959 60.202,79.951C64.282,79.928 68.358,79.935 72.437,79.943C73.591,79.943 73.599,80.02 73.168,81.073C72.783,81.997 72.222,82.281 71.214,82.258C67.85,82.181 64.482,82.228 61.113,82.228C60.994,82.228 60.871,82.22 60.759,82.274C60.732,82.32 60.72,82.367 60.732,82.42C61.739,84.05 61.351,83.796 63.104,83.804C65.549,83.82 68,83.804 70.445,83.812C70.699,83.812 71.041,83.72 71.172,83.966C71.315,84.242 71.029,84.473 70.868,84.689C69.483,86.488 69.965,86.166 67.891,86.188C66.642,86.204 65.392,86.188 64.142,86.196C63.961,86.196 63.761,86.134 63.546,86.304C63.903,86.703 64.219,87.126 64.608,87.495C64.785,87.664 65.019,87.657 65.246,87.657C65.977,87.664 66.704,87.657 67.434,87.664C67.634,87.672 67.891,87.634 67.972,87.872C68.049,88.095 67.887,88.287 67.726,88.41C67.287,88.76 66.945,89.244 66.399,89.467Z" fill-rule="evenodd" fill="#E6E6E6"/>
<path d="M66.399,89.467C66.683,89.113 67.003,88.814 67.368,88.536C67.583,88.375 67.856,88.198 67.887,87.813C67.045,87.813 66.215,87.767 65.396,87.829C64.831,87.875 64.458,87.667 64.135,87.252C63.912,86.968 63.662,86.706 63.42,86.437C63.328,86.33 63.197,86.214 63.258,86.083C63.323,85.937 63.504,86.014 63.635,86.014C65.473,86.006 67.307,86.006 69.145,86.022C69.514,86.022 69.752,85.907 69.964,85.599C70.333,85.069 70.752,84.569 71.167,84.037C70.994,83.914 70.836,83.961 70.694,83.961C67.818,83.953 64.942,83.945 62.065,83.961C61.677,83.961 61.411,83.884 61.223,83.523C61,83.1 60.723,82.7 60.469,82.293C60.576,82.208 60.703,82.239 60.823,82.239C64.134,82.239 67.441,82.239 70.752,82.239C70.848,82.239 70.944,82.223 70.963,82.239C67.576,82.239 64.123,82.231 60.666,82.239C60.593,82.239 60.527,82.246 60.47,82.293C60.397,82.216 60.389,82.131 60.512,82.116C60.666,82.093 60.823,82.1 60.977,82.1C64.603,82.1 68.229,82.092 71.859,82.108C72.282,82.108 72.536,82.007 72.689,81.592C72.82,81.223 73.02,80.877 73.228,80.53C73.451,80.161 73.343,80.084 72.951,80.084C70.625,80.1 68.299,80.092 65.976,80.092C63.911,80.092 61.846,80.077 59.781,80.108C59.362,80.116 59.147,79.969 59.009,79.608C58.909,79.346 58.763,79.108 58.643,78.862C58.362,78.294 58.393,78.239 59.012,78.239C62.377,78.239 65.741,78.239 69.11,78.239C70.706,78.239 72.298,78.232 73.897,78.247C74.22,78.247 74.419,78.155 74.527,77.848C74.666,77.455 74.812,77.072 74.981,76.687C75.096,76.433 75.035,76.333 74.766,76.333C74.627,76.34 74.489,76.333 74.35,76.333C68.987,76.333 63.626,76.34 58.266,76.333C58.07,76.333 57.85,76.417 57.674,76.248C57.82,76.163 57.982,76.202 58.135,76.202C63.057,76.194 67.983,76.194 72.912,76.194C73.043,76.194 73.181,76.186 73.212,76.194C71.827,76.194 70.34,76.194 68.848,76.194C65.31,76.194 61.773,76.194 58.235,76.194C58.047,76.194 57.854,76.147 57.67,76.24C57.301,75.732 57.32,75.087 56.989,74.479C57.312,74.479 57.535,74.479 57.758,74.479C63.529,74.479 69.305,74.471 75.073,74.494C75.565,74.494 75.803,74.356 75.873,73.879C75.919,73.557 75.988,73.233 76.096,72.93C76.235,72.549 76.119,72.46 75.735,72.464C74.089,72.48 72.443,72.472 70.797,72.468C70.589,71.98 70.785,70.907 71.151,70.538C71.629,70.395 72.113,70.457 72.597,70.465C73.589,70.477 74.574,70.4 75.558,70.507C75.804,70.58 75.904,70.784 76.019,70.98C77.073,72.703 78.626,73.564 80.633,73.603C81.395,73.619 82.163,73.661 82.917,73.496C83.256,73.419 83.594,73.334 83.894,73.149C84.156,72.996 84.34,72.784 84.394,72.464C84.517,71.749 84.679,71.045 84.802,70.284C83.509,71.13 82.156,71.219 80.741,70.803C79.426,70.415 78.641,69.531 78.487,68.169C78.287,66.385 78.802,64.766 79.848,63.324C80.317,62.693 80.971,62.29 81.755,62.151C83.047,61.928 84.309,62.001 85.539,62.501C86.046,62.709 86.061,62.693 86.154,62.132C86.246,61.532 86.353,60.932 86.476,60.34C86.538,60.067 86.484,59.863 86.192,59.767C83.962,59.021 81.739,58.909 79.532,59.84C78.671,60.205 77.948,60.744 77.386,61.517C77.225,61.74 77.116,62.098 76.717,62.055C76.733,61.69 76.686,61.444 76.194,61.444C69.607,61.463 63.025,61.459 56.442,61.463C56.354,60.844 56.334,60.24 56.811,59.744C60.845,59.74 64.874,59.744 68.908,59.74C64.882,59.736 60.856,59.744 56.83,59.736C56.749,59.729 56.719,59.682 56.738,59.602C63.056,59.602 69.373,59.602 75.688,59.598C76.334,59.598 76.334,59.598 76.195,58.983C75.903,57.699 75.903,57.699 74.573,57.699C68.844,57.699 63.114,57.699 57.388,57.699C56.773,57.699 56.773,57.699 56.973,57.103C57.111,56.699 57.142,56.161 57.423,55.926C57.738,55.665 58.288,55.845 58.738,55.845C63.945,55.841 69.151,55.841 74.357,55.841C74.665,55.841 74.972,55.841 75.341,55.841C75.141,55.249 74.957,54.711 74.779,54.172C74.672,53.822 74.402,53.834 74.118,53.834C70.158,53.838 66.201,53.838 62.244,53.838C61.064,53.838 59.883,53.838 58.702,53.83C58.541,53.83 58.352,53.907 58.214,53.753C58.395,53.657 58.587,53.703 58.776,53.703C63.505,53.699 68.239,53.703 72.965,53.699C73.126,53.699 73.288,53.734 73.434,53.653C73.496,53.607 73.38,53.58 73.426,53.63C73.449,53.657 73.442,53.665 73.404,53.676C73.289,53.718 73.173,53.695 73.057,53.695C68.254,53.699 63.452,53.699 58.653,53.695C58.499,53.695 58.341,53.734 58.195,53.649C58.264,53.492 58.36,53.337 58.391,53.176C58.614,52.045 59.36,51.946 60.36,51.957C64.639,52.011 68.923,51.98 73.203,51.98C73.372,51.98 73.549,51.98 73.81,51.98C73.464,51.307 73.149,50.676 72.818,50.065C72.665,49.796 72.365,49.977 72.141,49.903C71.972,49.788 71.772,49.849 71.587,49.845C67.957,49.841 64.327,49.845 60.694,49.841C60.509,49.841 60.313,49.895 60.136,49.783C60.355,49.237 60.705,48.764 60.986,48.253C61.109,48.026 61.324,48.126 61.497,48.126C64.65,48.118 67.808,48.118 70.96,48.118C71.148,48.118 71.333,48.118 71.603,48.118C71.168,47.384 70.71,46.749 70.2,46.157C70.054,45.991 69.839,46.061 69.658,46.061C67.316,46.057 64.978,46.057 62.552,46.057C63.044,45.469 63.487,44.934 63.932,44.408C64.086,44.223 64.309,44.258 64.516,44.258C65.816,44.258 67.112,44.258 68.511,44.258C67.969,43.281 67.077,42.731 66.397,41.989C67.142,41.17 68.05,40.539 68.93,39.882C70.776,38.49 72.787,37.371 74.894,36.437C77.048,35.483 79.293,34.814 81.608,34.357C83.916,33.903 86.238,33.691 88.584,33.761C91.214,33.842 93.806,34.234 96.352,34.945C98.198,35.461 99.99,36.126 101.712,36.964C103.818,37.994 105.787,39.256 107.625,40.724C108.855,41.708 110.01,42.77 111.086,43.916C112.701,45.635 114.086,47.53 115.316,49.541C116.523,51.51 117.43,53.605 118.138,55.786C118.66,57.393 119.045,59.035 119.337,60.704C119.791,63.28 119.676,65.875 119.591,68.456C119.529,70.505 119.053,72.519 118.484,74.492C117.838,76.715 116.984,78.852 115.877,80.884C114.862,82.76 113.662,84.521 112.278,86.144C111.578,86.974 110.871,87.797 110.079,88.551C108.148,90.405 106.041,92.027 103.734,93.388C100.573,95.249 97.166,96.442 93.583,97.164C91.253,97.641 88.884,97.595 86.523,97.602C83.884,97.618 81.347,97.118 78.825,96.425C76.517,95.794 74.334,94.863 72.257,93.695C70.389,92.649 68.609,91.45 67.001,90.011C66.799,89.836 66.519,89.736 66.399,89.467Z" fill-rule="evenodd" fill="#FFFFFF"/>
<path d="M29.039,63.861C28.408,65.365 27.774,66.868 27.147,68.372C26.439,70.067 25.736,71.768 25.04,73.467C24.944,73.697 24.802,73.771 24.563,73.767C23.66,73.755 22.76,73.751 21.856,73.767C21.502,73.775 21.414,73.625 21.418,73.302C21.448,71.748 21.241,70.21 21.199,68.66C21.164,67.475 21.06,66.292 20.988,65.111C20.957,64.638 20.938,64.157 20.788,63.669C20.696,64.149 20.596,64.63 20.511,65.115C20.042,67.895 19.565,70.675 19.115,73.459C19.073,73.717 18.988,73.767 18.765,73.763C17.965,73.759 17.169,73.748 16.369,73.767C16.034,73.779 16,73.625 16.046,73.356C16.454,71.044 16.846,68.726 17.261,66.412C17.588,64.558 17.941,62.705 18.276,60.851C18.314,60.636 18.376,60.393 18.364,60.201C18.318,59.536 18.656,59.44 19.187,59.501C19.375,59.521 19.568,59.489 19.756,59.482C20.798,59.394 21.84,59.394 22.882,59.482C22.986,59.489 23.09,59.517 23.19,59.501C23.574,59.443 23.67,59.585 23.694,59.981C23.801,61.85 23.905,63.727 24.009,65.595C24.048,66.238 24.005,66.895 24.152,67.699C24.567,66.707 24.921,65.853 25.278,65.004C26.008,63.246 26.739,61.485 27.474,59.728C27.551,59.543 27.689,59.497 27.885,59.501C28.37,59.509 28.854,59.489 29.339,59.482C30.035,59.398 30.727,59.398 31.423,59.482C31.784,59.489 32.153,59.532 32.511,59.497C32.942,59.459 33.003,59.651 32.938,60.009C32.73,61.185 32.538,62.366 32.327,63.543C32.027,65.235 31.716,66.926 31.415,68.619C31.135,70.191 30.861,71.768 30.581,73.341C30.535,73.599 30.446,73.791 30.085,73.776C29.323,73.734 28.558,73.756 27.797,73.764C27.501,73.768 27.443,73.73 27.509,73.383C27.885,71.388 28.213,69.384 28.558,67.385C28.746,66.308 28.935,65.236 29.127,64.159C29.231,64.043 29.2,63.909 29.131,63.801C29.097,63.746 29.074,63.842 29.039,63.861Z" fill-rule="evenodd" fill="#808080"/>
<path d="M57.436,66.753C57.747,64.969 58.67,63.581 60.201,62.631C60.824,62.247 61.551,62.07 62.277,62.005C63.942,61.855 65.569,61.917 66.83,63.247C67.391,63.839 67.637,64.574 67.753,65.382C67.91,66.454 67.599,67.481 67.541,68.534C67.525,68.895 67.253,68.768 67.08,68.768C65.084,68.776 63.088,68.772 61.093,68.772C60.435,68.772 60.374,68.861 60.562,69.492C60.854,70.491 61.77,71.134 62.796,71.253C63.838,71.372 64.846,71.372 65.834,71.026C66.261,70.872 66.668,70.653 67.142,70.437C66.992,71.337 66.853,72.199 66.711,73.056C66.68,73.225 66.519,73.248 66.403,73.31C65.914,73.579 65.368,73.729 64.838,73.741C63.284,73.775 61.712,73.91 60.212,73.271C58.582,72.579 57.617,71.399 57.34,69.637C57.282,69.28 57.271,68.922 57.232,68.565C56.998,67.926 57.117,67.33 57.436,66.753Z" fill-rule="evenodd" fill="#808080"/>
<path d="M76.72,62.054C77.343,61.324 77.943,60.581 78.788,60.074C79.711,59.516 80.719,59.216 81.757,59.12C83.319,58.967 84.863,59.12 86.348,59.662C86.586,59.75 86.772,59.843 86.671,60.224C86.479,60.912 86.34,61.627 86.286,62.343C86.248,62.966 86.048,62.877 85.609,62.674C84.471,62.147 83.263,62.07 82.026,62.239C80.672,62.42 79.911,63.308 79.334,64.423C78.766,65.542 78.48,66.737 78.604,67.995C78.774,69.668 79.65,70.521 81.473,70.825C82.711,71.033 83.849,70.802 84.918,70.017C84.956,70.563 84.772,71.025 84.726,71.497C84.687,71.886 84.595,72.27 84.526,72.658C84.457,73.077 84.119,73.277 83.796,73.392C81.904,74.065 78.313,74.073 76.628,72.058C76.251,71.604 75.913,71.139 75.659,70.612C75.198,70.228 75.198,69.651 75.067,69.129C75.013,68.933 75.02,68.725 75.005,68.521C74.882,67.917 74.813,67.322 75.143,66.752C75.412,65.104 75.881,63.516 76.72,62.054Z" fill-rule="evenodd" fill="#808080"/>
<path d="M48.742,61.97C49.654,61.943 50.561,61.982 51.465,62.155C51.792,62.217 51.777,62.363 51.734,62.57C51.611,63.174 51.469,63.774 51.342,64.374C51.288,64.612 51.165,64.716 50.907,64.708C50.476,64.692 50.042,64.635 49.626,64.566C48.996,64.466 48.411,64.616 47.812,64.692C47.339,64.754 46.951,65.03 46.912,65.481C46.87,65.958 47.262,66.293 47.677,66.485C48.235,66.738 48.819,66.942 49.396,67.146C50.83,67.65 51.319,68.964 51.069,70.341C51.027,70.579 51.046,70.814 50.988,71.056C50.573,72.775 49.058,73.536 47.539,73.771C46.697,73.898 45.847,73.902 45.009,73.848C44.148,73.79 43.271,73.794 42.44,73.463C42.136,73.344 42.048,73.233 42.148,72.894C42.302,72.375 42.421,71.833 42.479,71.29C42.521,70.894 42.706,70.845 43.006,70.936C44.102,71.271 45.225,71.371 46.366,71.34C47.17,71.313 47.6,70.859 47.57,70.067C47.559,69.725 47.385,69.545 47.105,69.39C46.298,68.941 45.375,68.748 44.594,68.213C43.529,67.479 43.306,66.433 43.421,65.321C43.486,64.691 43.687,64.095 44.036,63.549C44.647,62.603 45.594,62.273 46.628,62.065C47.327,61.923 48.034,61.981 48.742,61.97Z" fill-rule="evenodd" fill="#808080"/>
<path d="M56.74,59.601C56.729,59.632 56.729,59.659 56.744,59.689C56.771,59.712 56.783,59.735 56.775,59.758C56.767,59.777 56.756,59.789 56.748,59.789C56.648,60.347 56.544,60.904 56.444,61.461C56.417,61.68 56.386,61.899 56.352,62.165C56.944,62.165 57.54,62.165 58.167,62.165C58.028,62.949 57.878,63.68 57.786,64.414C57.751,64.687 57.632,64.706 57.421,64.703C57.075,64.695 56.71,64.768 56.387,64.684C55.864,64.541 55.799,64.857 55.729,65.214C55.66,65.579 55.594,65.948 55.529,66.318C55.517,66.514 55.54,66.707 55.552,66.903C55.498,67.099 55.54,67.322 55.379,67.487C55.194,68.51 55.002,69.533 54.829,70.559C54.771,70.894 54.852,71.124 55.245,71.267C55.795,71.463 56.318,71.424 56.845,71.271C57.157,71.186 57.191,71.321 57.133,71.551C56.999,72.063 56.864,72.574 56.833,73.101C56.825,73.274 56.699,73.32 56.576,73.389C56.257,73.57 55.907,73.655 55.549,73.697C54.538,73.816 53.523,73.855 52.542,73.54C51.765,73.29 51.392,72.633 51.558,71.725C51.854,70.079 52.1,68.43 52.431,66.792C52.765,65.127 53.008,63.442 53.289,61.762C53.396,61.143 53.497,60.524 53.616,59.908C53.666,59.643 53.782,59.477 54.127,59.492C54.873,59.531 55.619,59.5 56.365,59.508C56.494,59.509 56.647,59.447 56.74,59.601Z" fill-rule="evenodd" fill="#808080"/>
<path d="M71.113,70.613C70.925,71.217 70.821,71.837 70.798,72.467C70.598,72.733 70.641,73.068 70.606,73.356C70.568,73.71 70.457,73.775 70.141,73.767C69.329,73.751 68.514,73.748 67.7,73.767C67.349,73.779 67.311,73.66 67.373,73.34C67.711,71.552 68.038,69.76 68.346,67.965C68.665,66.13 68.957,64.292 69.253,62.458C69.292,62.196 69.434,62.166 69.649,62.169C70.495,62.177 71.344,62.177 72.19,62.166C72.46,62.166 72.622,62.243 72.491,62.523C72.376,62.753 72.499,63.015 72.352,63.227C72.259,63.342 72.313,63.485 72.298,63.611C72.29,63.68 72.32,63.723 72.313,63.653C72.313,63.649 72.336,63.638 72.352,63.63C72.775,63.445 72.936,62.988 73.297,62.715C74.112,62.088 75.005,62.027 76.035,62.096C75.551,62.872 75.181,63.638 75.019,64.484C74.997,64.599 74.989,64.722 74.958,64.834C74.895,65.03 74.919,65.214 74.542,65.137C73.435,64.914 72.059,65.78 71.835,66.756C71.904,67.391 71.605,67.971 71.559,68.586C71.397,69.26 71.437,69.979 71.113,70.613Z" fill-rule="evenodd" fill="#808080"/>
<path d="M71.429,68.564C71.544,67.957 71.568,67.33 71.836,66.756C72.936,66.756 74.035,66.756 75.143,66.752C75.097,67.356 74.966,67.96 75.143,68.564C75.097,68.594 75.067,68.637 75.013,68.644C73.859,68.745 72.705,68.748 71.56,68.64C71.506,68.638 71.467,68.591 71.429,68.564Z" fill-rule="evenodd" fill="#FFFFFF"/>
<path d="M55.494,66.907C55.505,66.707 55.517,66.511 55.529,66.314C55.536,66.649 55.671,66.794 56.036,66.768C56.501,66.73 56.971,66.756 57.436,66.752C57.344,67.356 57.228,67.952 57.232,68.564C56.886,68.564 56.54,68.56 56.194,68.556C55.529,68.556 55.483,68.514 55.479,67.86C55.479,67.741 55.483,67.618 55.487,67.499C55.536,67.299 55.336,67.1 55.494,66.907Z" fill-rule="evenodd" fill="#FFFFFF"/>
<path d="M112.375,59.5938C112.129,59.5897 112.015,59.7727 112.031,59.9688C112.047,60.2187 111.944,60.4525 111.906,60.6875C111.745,61.6685 111.536,62.6458 111.344,63.7188C110.675,62.7618 109.834,62.2605 108.781,62.1875C106.819,62.0455 105.303,62.9117 104.219,64.4688C102.697,66.6678 102.219,69.071 103.281,71.625C103.866,73.017 104.994,73.8998 106.625,73.9688C107.794,74.0148 108.819,73.591 109.75,72.875C109.72,72.987 109.678,73.1028 109.656,73.2188C109.579,73.5918 109.633,73.8393 110.125,73.7812C110.601,73.7272 111.078,73.75 111.562,73.75C112.663,73.75 112.683,73.7715 112.875,72.6875C113.297,70.3115 113.718,67.9072 114.125,65.5312C114.464,63.5702 114.778,61.6048 115.125,59.5938C114.194,59.5938 113.29,59.5938 112.375,59.5938ZM109.156,64.75C109.986,64.796 110.635,65.8455 110.688,66.6875C110.696,66.8605 110.687,67.0447 110.688,67.2188C110.671,68.5987 110.27,69.8537 109.125,70.7188C107.902,71.6498 106.683,71.1838 106.344,69.7188C105.96,68.0727 106.407,66.6635 107.5,65.4375C107.923,64.9565 108.495,64.716 109.156,64.75Z" fill="#808080"/>
<path d="M91.823,72.883C91.116,73.367 90.431,73.755 89.647,73.905C88.224,74.171 86.932,74.02 85.886,72.879C85.501,72.459 85.34,71.948 85.271,71.433C85.109,70.125 85.348,68.872 86.286,67.888C87.094,67.045 88.117,66.573 89.286,66.45C90.378,66.335 91.47,66.188 92.577,66.235C92.861,66.246 92.854,65.881 92.823,65.673C92.738,65.1 92.261,64.712 91.624,64.704C90.14,64.685 88.655,64.669 87.248,65.223C86.963,65.33 86.933,65.15 86.986,64.962C87.194,64.204 87.44,63.459 87.639,62.697C87.693,62.486 87.839,62.44 88.001,62.382C88.777,62.117 89.593,61.967 90.415,61.975C91.515,61.986 92.63,61.836 93.707,62.179C94.892,62.552 95.93,63.133 96.268,64.432C96.476,65.244 96.268,66.078 96.091,66.881C95.622,69.062 95.198,71.249 94.829,73.444C94.768,73.795 94.638,73.872 94.33,73.868C93.684,73.852 93.038,73.825 92.399,73.875C91.907,73.91 91.753,73.733 91.822,73.271C91.839,73.175 91.823,73.074 91.823,72.883Z" fill-rule="evenodd" fill="#808080"/>
<path d="M100.714,63.904C101.606,62.812 102.544,62.005 103.99,62.081C103.935,62.95 103.728,63.766 103.59,64.592C103.552,64.826 103.475,64.9 103.229,64.911C101.199,65.022 100.276,65.927 99.976,67.987C99.714,69.763 99.383,71.536 99.083,73.313C99.029,73.601 98.922,73.79 98.545,73.77C97.753,73.736 96.953,73.754 96.153,73.762C95.883,73.766 95.807,73.716 95.861,73.408C96.176,71.662 96.468,69.913 96.806,68.175C97.16,66.367 97.452,64.553 97.752,62.734C97.814,62.33 97.929,62.138 98.383,62.161C99.129,62.203 99.874,62.172 100.62,62.172C100.836,62.172 101.02,62.126 100.913,62.491C100.791,62.912 100.783,63.362 100.714,63.904Z" fill-rule="evenodd" fill="#808080"/>
<path d="M71.429,68.564C72.667,68.564 73.906,68.564 75.143,68.564C75.166,69.283 75.359,69.963 75.659,70.613C74.144,70.613 72.629,70.613 71.114,70.613C71.105,69.914 71.306,69.245 71.429,68.564Z" fill-rule="evenodd" fill="#E6E6E6"/>
<path d="M42.316,63.488C41.559,62.623 40.57,62.146 39.424,62.081C38.451,62.027 37.475,62.077 36.502,62.066C35.964,62.058 35.448,62.181 34.937,62.304C34.714,62.358 34.36,62.385 34.276,62.631C33.995,63.462 33.768,64.316 33.514,65.181C33.818,65.2 34.002,65.046 34.21,64.989C35.144,64.731 36.106,64.704 37.055,64.616C37.743,64.551 38.466,64.497 39.074,64.989C39.439,65.285 39.505,65.674 39.408,66.085C39.304,66.504 38.935,66.335 38.673,66.339C37.677,66.359 36.689,66.412 35.693,66.524C33.64,66.754 31.602,68.608 31.81,70.958C31.902,71.984 32.229,72.834 33.117,73.399C34.167,74.064 35.289,74.103 36.466,73.784C37.185,73.592 37.835,73.272 38.466,72.842C38.562,73.189 38.512,73.453 38.427,73.765C39.081,73.765 39.704,73.765 40.323,73.765C41.311,73.765 41.334,73.765 41.469,72.816C41.507,72.562 41.55,72.304 41.596,72.054C41.98,69.99 42.376,67.928 42.784,65.864C42.955,65 42.913,64.173 42.316,63.488ZM39.037,68.872C38.879,69.387 38.81,69.914 38.537,70.41C38.149,71.105 36.495,71.629 35.672,71.321C35.334,71.198 35.168,70.855 35.168,70.263C35.068,69.571 35.606,69.217 36.068,68.902C36.795,68.41 37.656,68.275 38.525,68.268C38.906,68.269 39.194,68.349 39.037,68.872Z" fill-rule="evenodd" fill="#808080"/>
<path d="M60.989,66.549C61.031,65.415 61.774,64.604 62.943,64.408C63.712,64.281 64.554,64.981 64.673,65.769C64.793,66.549 64.793,66.549 64,66.549C63,66.549 61.996,66.549 60.989,66.549Z" fill-rule="evenodd" fill="#E6E6E6"/>
<path d="M91.831,68.261C92.416,68.265 92.477,68.365 92.462,68.907C92.408,70.614 91.27,71.257 89.894,71.429C89.471,71.479 89.017,71.407 88.779,70.964C88.487,70.422 88.555,69.837 88.932,69.395C89.479,68.753 90.202,68.468 91.009,68.361C91.301,68.322 91.585,68.291 91.831,68.261Z" fill-rule="evenodd" fill="#FFFFFF"/>
</g>
</g>
</svg>
